HIERARCHY
ROOT newVegas:Hips
{
	OFFSET 0.000000 96.479958 0.000000
	CHANNELS 6 Xposition Yposition Zposition Xrotation Yrotation Zrotation
	JOINT newVegas:Pelvis
	{
		OFFSET 0.000000 0.000000 0.000000
		CHANNELS 3 Xrotation Yrotation Zrotation
		JOINT newVegas:LeftUpLeg
		{
			OFFSET 18.735201 -5.666702 -4.541200
			CHANNELS 3 Xrotation Yrotation Zrotation
			JOINT newVegas:LeftLeg
			{
				OFFSET -0.021200 -31.938179 0.493100
				CHANNELS 3 Xrotation Yrotation Zrotation
				JOINT newVegas:LeftFoot
				{
					OFFSET 0.021200 -31.938179 -4.336299
					CHANNELS 3 Xrotation Yrotation Zrotation
					JOINT newVegas:LeftToeBase
					{
						OFFSET 0.943001 -26.722000 15.023500
						CHANNELS 3 Xrotation Yrotation Zrotation
						End Site
						{
							OFFSET 0.000000 30.670183 0.000000
						}
					}
				}
				JOINT newVegas:Left_PantLeg
				{
					OFFSET 0.663870 -9.044666 -1.108900
					CHANNELS 3 Xrotation Yrotation Zrotation
					End Site
					{
						OFFSET 1.415995 20.635357 0.000000
					}
				}
			}
		}
		JOINT newVegas:RightUpLeg
		{
			OFFSET -18.735201 -5.666702 -4.541200
			CHANNELS 3 Xrotation Yrotation Zrotation
			JOINT newVegas:RightLeg
			{
				OFFSET 0.018946 -31.938133 0.493100
				CHANNELS 3 Xrotation Yrotation Zrotation
				JOINT newVegas:RightFoot
				{
					OFFSET -0.018946 -31.938126 -4.336299
					CHANNELS 3 Xrotation Yrotation Zrotation
					JOINT newVegas:RightToeBase
					{
						OFFSET -0.943001 -26.722004 15.023500
						CHANNELS 3 Xrotation Yrotation Zrotation
						End Site
						{
							OFFSET 0.000000 30.670187 0.000000
						}
					}
				}
				JOINT newVegas:Right_PantLeg
				{
					OFFSET -0.661674 -9.044716 -1.108900
					CHANNELS 3 Xrotation Yrotation Zrotation
					End Site
					{
						OFFSET -1.415958 20.635269 0.000000
					}
				}
			}
		}
	}
	JOINT newVegas:Spine
	{
		OFFSET 0.000000 10.199997 -0.299500
		CHANNELS 3 Xrotation Yrotation Zrotation
		JOINT newVegas:Spine1
		{
			OFFSET 0.000000 11.900002 -1.516600
			CHANNELS 3 Xrotation Yrotation Zrotation
			JOINT newVegas:Spine2
			{
				OFFSET 0.000000 13.600006 -2.842500
				CHANNELS 3 Xrotation Yrotation Zrotation
				JOINT newVegas:Neck
				{
					OFFSET 0.000000 9.624100 -2.890100
					CHANNELS 3 Xrotation Yrotation Zrotation
					JOINT newVegas:Head
					{
						OFFSET 0.000000 14.068802 -1.351900
						CHANNELS 3 Xrotation Yrotation Zrotation
						JOINT newVegas:Hair_Back
						{
							OFFSET 0.000000 3.231903 -17.524799
							CHANNELS 3 Xrotation Yrotation Zrotation
							End Site
							{
								OFFSET 0.000000 19.849884 0.000000
							}
						}
						JOINT newVegas:Hair_Front
						{
							OFFSET 0.000000 31.260406 4.573800
							CHANNELS 3 Xrotation Yrotation Zrotation
							JOINT newVegas:Hair_Front1
							{
								OFFSET 0.000000 2.284103 11.993300
								CHANNELS 3 Xrotation Yrotation Zrotation
								JOINT newVegas:Hair_Front2
								{
									OFFSET 0.000000 2.284103 11.993300
									CHANNELS 3 Xrotation Yrotation Zrotation
									End Site
									{
										OFFSET 0.000000 12.208862 0.000000
									}
								}
							}
						}
						JOINT newVegas:Jowel
						{
							OFFSET 0.000000 -7.458206 6.864100
							CHANNELS 3 Xrotation Yrotation Zrotation
							End Site
							{
								OFFSET 0.000000 19.849884 0.000000
							}
						}
					}
				}
				JOINT newVegas:LeftShoulder
				{
					OFFSET 15.263000 10.923401 -0.547700
					CHANNELS 3 Xrotation Yrotation Zrotation
					JOINT newVegas:LeftArm
					{
						OFFSET 25.438599 -2.830597 -13.032500
						CHANNELS 3 Xrotation Yrotation Zrotation
						JOINT newVegas:LeftForeArm
						{
							OFFSET 29.960503 0.000000 0.000000
							CHANNELS 3 Xrotation Yrotation Zrotation
							JOINT newVegas:LeftHand
							{
								OFFSET 27.849251 0.000000 0.000000
								CHANNELS 3 Xrotation Yrotation Zrotation
								JOINT newVegas:LeftHandThumb1
								{
									OFFSET 4.487587 -3.305161 6.305391
									CHANNELS 3 Xrotation Yrotation Zrotation
									JOINT newVegas:LeftHandThumb2
									{
										OFFSET 5.480453 -3.164139 3.164143
										CHANNELS 3 Xrotation Yrotation Zrotation
										JOINT newVegas:LeftHandThumb3
										{
											OFFSET 5.159721 -2.978973 2.978967
											CHANNELS 3 Xrotation Yrotation Zrotation
											End Site
											{
												OFFSET 2.494507 5.926697 1.738678
											}
										}
									}
								}
								JOINT newVegas:LeftHandIndex1
								{
									OFFSET 18.578728 -0.527832 5.208049
									CHANNELS 3 Xrotation Yrotation Zrotation
									JOINT newVegas:LeftHandIndex2
									{
										OFFSET 3.192009 0.000000 0.000000
										CHANNELS 3 Xrotation Yrotation Zrotation
										JOINT newVegas:LeftHandIndex3
										{
											OFFSET 3.835129 0.000000 0.000000
											CHANNELS 3 Xrotation Yrotation Zrotation
											End Site
											{
												OFFSET -0.034599 3.816971 0.371180
											}
										}
									}
								}
								JOINT newVegas:LeftHandMiddle1
								{
									OFFSET 18.476105 0.000000 0.000000
									CHANNELS 3 Xrotation Yrotation Zrotation
									JOINT newVegas:LeftHandMiddle2
									{
										OFFSET 3.324875 0.000000 0.000000
										CHANNELS 3 Xrotation Yrotation Zrotation
										JOINT newVegas:LeftHandMiddle3
										{
											OFFSET 4.596550 0.000000 0.000000
											CHANNELS 3 Xrotation Yrotation Zrotation
											End Site
											{
												OFFSET 0.057701 4.578827 0.399218
											}
										}
									}
								}
								JOINT newVegas:LeftHandRing1
								{
									OFFSET 17.732719 0.121887 -4.201567
									CHANNELS 3 Xrotation Yrotation Zrotation
									JOINT newVegas:LeftHandRing2
									{
										OFFSET 2.733170 0.000000 0.000000
										CHANNELS 3 Xrotation Yrotation Zrotation
										JOINT newVegas:LeftHandRing3
										{
											OFFSET 3.178268 0.000000 0.000000
											CHANNELS 3 Xrotation Yrotation Zrotation
											End Site
											{
												OFFSET 0.119102 3.170624 0.185394
											}
										}
									}
								}
								JOINT newVegas:LeftHandPinky1
								{
									OFFSET 15.989624 -0.606689 -7.535461
									CHANNELS 3 Xrotation Yrotation Zrotation
									JOINT newVegas:LeftHandPinky2
									{
										OFFSET 2.538986 0.000000 0.000000
										CHANNELS 3 Xrotation Yrotation Zrotation
										JOINT newVegas:LeftHandPinky3
										{
											OFFSET 2.593102 0.000000 0.000000
											CHANNELS 3 Xrotation Yrotation Zrotation
											End Site
											{
												OFFSET -0.150902 2.584198 0.152708
											}
										}
									}
								}
							}
							JOINT newVegas:Left_Sleeve
							{
								OFFSET 0.267448 -0.649796 0.577675
								CHANNELS 3 Xrotation Yrotation Zrotation
								End Site
								{
									OFFSET 0.000000 15.991241 0.000000
								}
							}
							JOINT newVegas:Left_CapeC
							{
								OFFSET 15.715958 -8.608795 -6.935905
								CHANNELS 3 Xrotation Yrotation Zrotation
								JOINT newVegas:Left_CapeC1
								{
									OFFSET 0.000000 -8.688499 0.000000
									CHANNELS 3 Xrotation Yrotation Zrotation
									End Site
									{
										OFFSET 0.000000 8.688499 0.000000
									}
								}
							}
						}
						JOINT newVegas:Left_CapeB
						{
							OFFSET 26.118385 -8.608795 -7.079235
							CHANNELS 3 Xrotation Yrotation Zrotation
							JOINT newVegas:Left_CapeB1
							{
								OFFSET 0.000000 -8.688499 0.000000
								CHANNELS 3 Xrotation Yrotation Zrotation
								End Site
								{
									OFFSET 0.000000 8.688499 0.000000
								}
							}
						}
						JOINT newVegas:Left_CapeA
						{
							OFFSET 5.115639 -8.608795 -10.395809
							CHANNELS 3 Xrotation Yrotation Zrotation
							JOINT newVegas:Left_CapeA1
							{
								OFFSET 0.000000 -8.688499 0.000000
								CHANNELS 3 Xrotation Yrotation Zrotation
								End Site
								{
									OFFSET 0.000000 8.688499 0.000000
								}
							}
						}
					}
				}
				JOINT newVegas:RightShoulder
				{
					OFFSET -15.263000 10.923401 -0.547700
					CHANNELS 3 Xrotation Yrotation Zrotation
					JOINT newVegas:RightArm
					{
						OFFSET -25.438599 -2.830597 -13.032500
						CHANNELS 3 Xrotation Yrotation Zrotation
						JOINT newVegas:RightForeArm
						{
							OFFSET -29.960503 0.000000 0.000000
							CHANNELS 3 Xrotation Yrotation Zrotation
							JOINT newVegas:RightHand
							{
								OFFSET -27.849251 0.000000 0.000000
								CHANNELS 3 Xrotation Yrotation Zrotation
								JOINT newVegas:RightHandThumb1
								{
									OFFSET -4.487587 -3.305161 6.305391
									CHANNELS 3 Xrotation Yrotation Zrotation
									JOINT newVegas:RightHandThumb2
									{
										OFFSET -5.480453 -3.164139 3.164143
										CHANNELS 3 Xrotation Yrotation Zrotation
										JOINT newVegas:RightHandThumb3
										{
											OFFSET -5.159721 -2.978973 2.978967
											CHANNELS 3 Xrotation Yrotation Zrotation
											End Site
											{
												OFFSET -2.494507 5.926697 1.738678
											}
										}
									}
								}
								JOINT newVegas:RightHandIndex1
								{
									OFFSET -18.578728 -0.527832 5.208049
									CHANNELS 3 Xrotation Yrotation Zrotation
									JOINT newVegas:RightHandIndex2
									{
										OFFSET -3.192009 0.000000 0.000000
										CHANNELS 3 Xrotation Yrotation Zrotation
										JOINT newVegas:RightHandIndex3
										{
											OFFSET -3.835129 0.000000 0.000000
											CHANNELS 3 Xrotation Yrotation Zrotation
											End Site
											{
												OFFSET 0.034599 3.816971 0.371180
											}
										}
									}
								}
								JOINT newVegas:RightHandMiddle1
								{
									OFFSET -18.476105 0.000000 0.000000
									CHANNELS 3 Xrotation Yrotation Zrotation
									JOINT newVegas:RightHandMiddle2
									{
										OFFSET -3.324875 0.000000 0.000000
										CHANNELS 3 Xrotation Yrotation Zrotation
										JOINT newVegas:RightHandMiddle3
										{
											OFFSET -4.596550 0.000000 0.000000
											CHANNELS 3 Xrotation Yrotation Zrotation
											End Site
											{
												OFFSET -0.057701 4.578827 0.399218
											}
										}
									}
								}
								JOINT newVegas:RightHandRing1
								{
									OFFSET -17.732719 0.121887 -4.201567
									CHANNELS 3 Xrotation Yrotation Zrotation
									JOINT newVegas:RightHandRing2
									{
										OFFSET -2.733170 0.000000 0.000000
										CHANNELS 3 Xrotation Yrotation Zrotation
										JOINT newVegas:RightHandRing3
										{
											OFFSET -3.178268 0.000000 0.000000
											CHANNELS 3 Xrotation Yrotation Zrotation
											End Site
											{
												OFFSET -0.119102 3.170624 0.185394
											}
										}
									}
								}
								JOINT newVegas:RightHandPinky1
								{
									OFFSET -15.989624 -0.606689 -7.535461
									CHANNELS 3 Xrotation Yrotation Zrotation
									JOINT newVegas:RightHandPinky2
									{
										OFFSET -2.538986 0.000000 0.000000
										CHANNELS 3 Xrotation Yrotation Zrotation
										JOINT newVegas:RightHandPinky3
										{
											OFFSET -2.593102 0.000000 0.000000
											CHANNELS 3 Xrotation Yrotation Zrotation
											End Site
											{
												OFFSET 0.150902 2.584198 0.152708
											}
										}
									}
								}
							}
							JOINT newVegas:Right_CapeC
							{
								OFFSET -15.715958 -8.608795 -6.935905
								CHANNELS 3 Xrotation Yrotation Zrotation
								JOINT newVegas:Right_CapeC1
								{
									OFFSET 0.000000 -8.688499 0.000000
									CHANNELS 3 Xrotation Yrotation Zrotation
									End Site
									{
										OFFSET 0.000000 8.688499 0.000000
									}
								}
							}
							JOINT newVegas:Right_Sleeve
							{
								OFFSET -0.267448 -0.649994 0.577675
								CHANNELS 3 Xrotation Yrotation Zrotation
								End Site
								{
									OFFSET 0.000000 15.991302 0.000000
								}
							}
						}
						JOINT newVegas:Right_CapeA
						{
							OFFSET -5.115540 -8.608795 -10.395824
							CHANNELS 3 Xrotation Yrotation Zrotation
							JOINT newVegas:Right_CapeA1
							{
								OFFSET 0.000000 -8.688499 0.000000
								CHANNELS 3 Xrotation Yrotation Zrotation
								End Site
								{
									OFFSET 0.000000 8.688499 0.000000
								}
							}
						}
						JOINT newVegas:Right_CapeB
						{
							OFFSET -26.118187 -8.608795 -7.079266
							CHANNELS 3 Xrotation Yrotation Zrotation
							JOINT newVegas:Right_CapeB1
							{
								OFFSET 0.000000 -8.688499 0.000000
								CHANNELS 3 Xrotation Yrotation Zrotation
								End Site
								{
									OFFSET 0.000000 8.688499 0.000000
								}
							}
						}
					}
				}
				JOINT newVegas:Left_Collar
				{
					OFFSET 18.625099 8.655502 8.828100
					CHANNELS 3 Xrotation Yrotation Zrotation
					JOINT newVegas:Left_Collar1
					{
						OFFSET 14.783401 10.540405 -1.259500
						CHANNELS 3 Xrotation Yrotation Zrotation
						End Site
						{
							OFFSET 0.000000 18.199875 0.000000
						}
					}
				}
				JOINT newVegas:Collar_Back
				{
					OFFSET 0.000000 15.630707 -20.132601
					CHANNELS 3 Xrotation Yrotation Zrotation
					End Site
					{
						OFFSET 0.000000 22.523010 0.000000
					}
				}
				JOINT newVegas:Left_Peck
				{
					OFFSET 17.239599 -5.132599 25.482599
					CHANNELS 3 Xrotation Yrotation Zrotation
					End Site
					{
						OFFSET 0.000000 22.523010 0.000000
					}
				}
				JOINT newVegas:Right_Peck
				{
					OFFSET -17.239599 -5.132202 25.482599
					CHANNELS 3 Xrotation Yrotation Zrotation
					End Site
					{
						OFFSET 0.000000 22.523010 0.000000
					}
				}
				JOINT newVegas:Right_Collar
				{
					OFFSET -18.625099 8.655792 8.828100
					CHANNELS 3 Xrotation Yrotation Zrotation
					JOINT newVegas:Right_Collar1
					{
						OFFSET -14.783401 10.539993 -1.259500
						CHANNELS 3 Xrotation Yrotation Zrotation
						End Site
						{
							OFFSET 0.000000 18.199631 0.000000
						}
					}
				}
			}
		}
		JOINT newVegas:Belly
		{
			OFFSET 0.000000 -6.540398 9.014299
			CHANNELS 3 Xrotation Yrotation Zrotation
			End Site
			{
				OFFSET 0.000000 11.566666 0.000000
			}
		}
	}
	JOINT newVegas:ElvisFacialAnim_Joint
	{
		OFFSET 1.000000 -95.330101 -8.825800
		CHANNELS 3 Xrotation Yrotation Zrotation
		End Site
		{
			OFFSET 0.000000 35.315800 0.000000
		}
	}
}
MOTION
Frames: 4
Frame Time: 0.033333
-1.094074 93.675148 1.865547 3.497790 -20.896643 2.189927 0.000000 -0.000001 -0.000000 -22.068708 18.531024 13.184902 20.620590 7.172381 -3.445719 -1.954192 -7.549493 -4.373434 -0.000000 -0.000000 0.000000 -0.000000 -0.000001 -0.000000 -10.746660 -0.191347 -11.334994 18.983133 5.282911 -0.219387 -11.215069 -4.806283 9.460008 0.000000 -0.000002 0.000000 -0.000000 0.000000 0.000000 8.436765 0.658121 -2.047795 0.960826 -0.224122 2.637898 0.987785 0.032001 2.719205 0.386844 -1.435147 -1.381872 0.386844 -1.435144 -1.381875 0.000001 -0.000001 -0.000000 0.386844 -1.435148 -1.381873 0.386918 -1.435133 -1.381873 -0.000001 -0.000002 0.000001 0.000001 -0.000001 -0.000000 -2.041421 -11.301493 -10.718771 25.856099 -16.005228 -36.693665 38.891404 -85.158566 66.648371 3.179984 7.452676 -4.483190 17.551612 -5.699219 -12.932267 10.850465 26.127729 8.644780 0.000001 0.000000 -0.000003 13.980926 1.201522 -55.004364 0.370819 1.161713 -65.441880 -0.000000 -0.000002 0.000002 7.504717 1.174462 -63.778496 1.807837 1.475660 -64.567984 -0.000000 0.000001 0.000000 8.574318 2.179069 -75.148992 -0.207619 1.009259 -57.855056 -0.000001 -0.000002 -0.000002 10.030085 13.637076 -84.750244 0.877120 0.062299 -64.595531 -0.000002 -0.000005 0.000001 0.000004 -0.000001 0.000003 0.000004 -0.000001 0.000003 0.000004 -0.000001 0.000003 0.000001 -0.000002 0.000002 0.000001 -0.000003 0.000001 0.000001 -0.000002 0.000002 0.000002 -0.000002 0.000002 4.227712 13.975181 6.663974 -21.578707 26.778682 51.428206 22.218660 60.989034 -22.709662 -19.744726 1.119421 -4.158613 31.009540 6.497574 -6.517081 -2.198360 -31.113554 7.361198 -0.000003 0.000000 0.000001 8.900310 -11.655942 27.340868 -1.260541 -3.040013 46.765366 -0.000002 -0.000001 -0.000000 5.278734 -12.911471 40.591128 2.508621 -4.435427 53.185450 -0.000000 0.000001 0.000001 2.272075 -15.451479 41.298565 5.460360 -1.797256 60.274179 0.000001 -0.000001 0.000000 -6.290814 -20.222541 45.135820 10.226438 -2.403456 71.065229 0.000001 -0.000000 0.000000 -0.000001 -0.000000 0.000000 -0.000003 -0.000001 -0.000000 -0.000001 -0.000000 0.000000 -0.000000 0.000003 -0.000001 -0.000000 0.000003 -0.000001 -0.000000 0.000003 -0.000001 -0.000000 0.000003 -0.000001 0.000001 -0.000001 0.000001 0.000001 -0.000001 0.000001 0.000001 -0.000001 0.000001 0.000001 -0.000001 0.000001 0.000001 -0.000001 0.000001 0.000001 -0.000001 0.000001 0.000001 -0.000001 0.000001 -0.000001 -0.000002 0.000000 0.000000 -0.000001 -0.000000 
-1.141197 93.677826 1.931972 3.490596 -20.963104 2.161652 -0.000000 0.000002 -0.000000 -22.013107 18.550463 13.263269 20.700987 7.169335 -3.467913 -2.086171 -7.540839 -4.426775 -0.000000 -0.000000 -0.000000 -0.000000 -0.000001 0.000000 -10.671451 -0.178858 -11.277318 18.924562 5.278924 -0.208559 -11.217797 -4.800972 9.425707 0.000000 0.000000 0.000000 0.000001 -0.000001 -0.000000 8.435979 0.660197 -2.051673 0.955638 -0.221858 2.646430 0.982225 0.034616 2.727555 0.446138 -1.427422 -1.418946 0.446134 -1.427415 -1.418950 0.000001 0.000001 -0.000000 0.446138 -1.427426 -1.418947 0.446134 -1.427398 -1.418951 -0.000001 -0.000002 0.000000 0.000001 0.000001 -0.000000 -2.106374 -11.740317 -10.595129 26.059600 -15.418898 -37.113250 41.969159 -85.385165 69.708091 3.362383 7.502062 -4.360171 17.551616 -5.699215 -12.932264 10.850465 26.127729 8.644784 0.000003 -0.000001 -0.000004 13.980932 1.201520 -55.004364 0.370818 1.161710 -65.441880 -0.000001 0.000000 -0.000002 7.504718 1.174463 -63.778496 1.807835 1.475662 -64.567984 -0.000001 -0.000001 -0.000000 8.574325 2.179072 -75.148999 -0.207620 1.009261 -57.855056 0.000001 -0.000002 -0.000000 10.030086 13.637080 -84.750244 0.877118 0.062300 -64.595531 -0.000000 -0.000003 -0.000000 0.000002 -0.000001 0.000001 0.000002 -0.000001 0.000001 0.000001 -0.000001 0.000001 -0.000000 0.000003 0.000001 -0.000000 0.000002 0.000001 -0.000000 0.000003 0.000001 0.000001 0.000003 0.000001 4.276930 13.893205 6.480679 -21.652863 26.695794 51.829760 22.301162 61.096315 -22.866314 -19.112061 1.243738 -4.174733 31.010449 6.495099 -6.516247 -2.198359 -31.113557 7.361201 -0.000000 -0.000005 0.000003 8.897400 -11.650294 27.339806 -1.266195 -3.035326 46.765417 -0.000003 0.000003 0.000003 5.278625 -12.905357 40.590674 2.503279 -4.439667 53.185266 -0.000003 -0.000002 -0.000000 2.267360 -15.455904 41.297400 5.455982 -1.798748 60.273790 0.000001 0.000001 -0.000000 -6.296361 -20.221175 45.134112 10.209921 -2.394942 71.063993 0.000002 -0.000000 -0.000002 0.000001 0.000000 0.000001 0.000001 0.000000 0.000000 0.000001 0.000000 0.000001 0.000002 -0.000001 -0.000002 0.000002 0.000000 -0.000002 0.000002 -0.000001 -0.000002 0.000002 -0.000000 -0.000002 -0.000000 0.000001 -0.000000 -0.000000 0.000001 -0.000000 -0.000000 0.000001 -0.000000 -0.000000 0.000001 -0.000000 -0.000000 0.000001 -0.000000 -0.000000 0.000001 -0.000000 -0.000000 0.000001 -0.000000 -0.000000 0.000000 0.000000 -0.000000 0.000002 -0.000000 
-1.195639 93.681648 1.993071 3.474956 -21.147504 2.105393 -0.000000 0.000001 -0.000000 -21.955937 18.545002 13.405931 20.853729 7.234221 -3.494555 -2.274008 -7.468349 -4.522099 -0.000000 0.000000 0.000000 0.000000 0.000000 0.000000 -10.651078 -0.159549 -11.202838 18.867276 5.359170 -0.225993 -11.138490 -4.730987 9.423177 0.000000 0.000002 -0.000000 -0.000000 0.000002 -0.000001 8.435570 0.663607 -2.058074 0.979033 -0.212546 2.678466 1.005531 0.044144 2.758967 0.486216 -1.412560 -1.474426 0.486213 -1.412555 -1.474426 -0.000001 -0.000003 0.000000 0.486218 -1.412554 -1.474428 0.486296 -1.412564 -1.474423 -0.000001 0.000001 0.000000 -0.000001 -0.000003 0.000000 -2.169770 -12.182039 -10.470502 26.314549 -14.744831 -37.565351 46.042510 -85.648817 73.765551 3.501115 7.560927 -4.122394 17.551611 -5.699215 -12.932269 10.850464 26.127726 8.644780 0.000000 -0.000003 -0.000003 13.980929 1.201521 -55.004364 0.370820 1.161713 -65.441880 -0.000003 -0.000002 -0.000002 7.504717 1.174460 -63.778490 1.807836 1.475662 -64.567984 0.000005 -0.000001 0.000000 8.574322 2.179068 -75.148999 -0.207620 1.009260 -57.855056 0.000000 -0.000001 -0.000001 10.030084 13.637075 -84.750244 0.877122 0.062293 -64.595524 -0.000000 -0.000003 0.000000 -0.000000 0.000000 -0.000001 -0.000000 0.000000 -0.000001 -0.000001 -0.000000 -0.000001 -0.000000 0.000001 -0.000000 -0.000000 0.000000 0.000000 -0.000000 0.000001 -0.000000 -0.000002 -0.000001 0.000001 4.323079 13.933050 6.217189 -21.860183 26.517993 52.317767 22.367953 61.179924 -22.923705 -18.388218 1.389527 -4.159066 31.011436 6.492350 -6.515342 -2.198364 -31.113547 7.361194 -0.000002 -0.000002 -0.000001 8.894229 -11.643966 27.338647 -1.271697 -3.030444 46.765503 -0.000000 -0.000001 -0.000001 5.278496 -12.898552 40.590172 2.497260 -4.444384 53.185057 -0.000000 -0.000003 -0.000000 2.262072 -15.462580 41.296096 5.451330 -1.800100 60.273462 0.000000 0.000001 -0.000001 -6.302482 -20.219640 45.132196 10.193559 -2.386237 71.062777 -0.000000 0.000001 0.000003 -0.000000 0.000000 -0.000000 -0.000001 -0.000001 0.000000 -0.000000 0.000000 -0.000000 -0.000000 0.000001 -0.000001 -0.000000 0.000002 -0.000001 -0.000000 0.000001 -0.000001 -0.000000 0.000002 -0.000001 -0.000001 -0.000001 0.000001 -0.000001 -0.000001 0.000001 -0.000001 -0.000001 0.000001 -0.000001 -0.000001 0.000001 -0.000001 -0.000001 0.000001 -0.000001 -0.000001 0.000001 -0.000001 -0.000001 0.000001 0.000000 -0.000000 0.000000 -0.000000 0.000001 -0.000000 
-1.248562 93.684967 2.054056 3.463597 -21.316139 2.050333 -0.000000 0.000001 -0.000000 -21.909553 18.535733 13.539186 20.999160 7.289095 -3.509480 -2.451693 -7.408876 -4.618173 0.000000 -0.000000 0.000000 0.000000 0.000000 -0.000000 -10.619768 -0.150342 -11.122729 18.797200 5.424918 -0.242847 -11.067354 -4.677211 9.415219 0.000000 -0.000001 0.000000 0.000001 -0.000003 0.000000 8.435290 0.671171 -2.065745 0.998678 -0.198971 2.702852 1.025058 0.057171 2.783199 0.521412 -1.395938 -1.522960 0.521415 -1.395931 -1.522964 0.000000 0.000001 -0.000000 0.521418 -1.395932 -1.522961 0.521417 -1.395939 -1.522962 -0.000002 0.000001 0.000000 0.000000 0.000001 -0.000000 -2.231617 -12.627255 -10.344528 26.556911 -14.095111 -38.016683 50.595863 -85.887033 78.303508 3.647499 7.617813 -3.894906 17.551614 -5.699217 -12.932263 10.850462 26.127729 8.644777 -0.000001 -0.000004 -0.000003 13.980926 1.201520 -55.004364 0.370819 1.161711 -65.441880 0.000002 -0.000001 -0.000000 7.504716 1.174464 -63.778496 1.807836 1.475664 -64.567984 0.000001 -0.000000 -0.000001 8.574318 2.179070 -75.148999 -0.207620 1.009264 -57.855063 0.000003 -0.000001 -0.000000 10.030086 13.637075 -84.750244 0.877124 0.062303 -64.595524 0.000000 -0.000003 0.000001 0.000001 0.000001 -0.000001 0.000001 0.000001 -0.000001 0.000000 0.000000 -0.000001 -0.000002 -0.000001 -0.000002 -0.000002 -0.000002 -0.000002 -0.000002 -0.000001 -0.000002 -0.000001 0.000000 -0.000001 4.374703 13.893815 5.979743 -21.990019 26.488394 52.645104 22.428430 61.253717 -22.903612 -17.882619 1.582077 -4.245875 31.012570 6.489188 -6.514322 -2.198355 -31.113550 7.361200 0.000001 -0.000004 -0.000001 8.886000 -11.635828 27.364796 -1.277080 -3.025822 46.787247 0.000000 0.000001 0.000001 5.271597 -12.889660 40.603135 2.490263 -4.449538 53.193404 0.000000 -0.000003 0.000001 2.252636 -15.460371 41.303602 5.446367 -1.801513 60.268544 -0.000001 0.000002 -0.000001 -6.310061 -20.211682 45.141168 10.177108 -2.378996 71.052996 -0.000003 0.000003 -0.000001 -0.000001 0.000001 -0.000000 -0.000001 0.000000 -0.000000 -0.000001 0.000000 -0.000001 0.000002 0.000000 -0.000003 0.000002 0.000001 -0.000003 0.000002 0.000000 -0.000003 0.000002 0.000001 -0.000004 -0.000000 -0.000000 -0.000000 -0.000000 -0.000000 -0.000000 -0.000000 -0.000000 -0.000000 -0.000000 -0.000000 -0.000000 -0.000000 -0.000000 -0.000000 -0.000000 -0.000000 -0.000000 -0.000000 -0.000000 -0.000000 -0.000000 -0.000001 0.000000 -0.000000 0.000001 -0.000000 
